<?xml version="1.0" standalone="no"?>
<svg xmlns:xlink="http://www.w3.org/1999/xlink" id="wave" style="transform:rotate(180deg); transition: 0.3s" viewBox="0 0 1440 490" version="1.1" xmlns="http://www.w3.org/2000/svg"><defs><linearGradient id="sw-gradient-0" x1="0" x2="0" y1="1" y2="0"><stop stop-color="rgba(255, 253.297, 252.751, 1)" offset="0%"/><stop stop-color="rgba(27.642, 26.059, 22.56, 1)" offset="100%"/></linearGradient></defs><path style="transform:translate(0, 0px); opacity:1" fill="url(#sw-gradient-0)" d="M0,245L60,269.5C120,294,240,343,360,326.7C480,310,600,229,720,196C840,163,960,180,1080,204.2C1200,229,1320,261,1440,294C1560,327,1680,359,1800,343C1920,327,2040,261,2160,269.5C2280,278,2400,359,2520,383.8C2640,408,2760,376,2880,310.3C3000,245,3120,147,3240,106.2C3360,65,3480,82,3600,98C3720,114,3840,131,3960,179.7C4080,229,4200,310,4320,334.8C4440,359,4560,327,4680,326.7C4800,327,4920,359,5040,351.2C5160,343,5280,294,5400,294C5520,294,5640,343,5760,367.5C5880,392,6000,392,6120,375.7C6240,359,6360,327,6480,318.5C6600,310,6720,327,6840,334.8C6960,343,7080,343,7200,359.3C7320,376,7440,408,7560,375.7C7680,343,7800,245,7920,245C8040,245,8160,343,8280,351.2C8400,359,8520,278,8580,236.8L8640,196L8640,490L8580,490C8520,490,8400,490,8280,490C8160,490,8040,490,7920,490C7800,490,7680,490,7560,490C7440,490,7320,490,7200,490C7080,490,6960,490,6840,490C6720,490,6600,490,6480,490C6360,490,6240,490,6120,490C6000,490,5880,490,5760,490C5640,490,5520,490,5400,490C5280,490,5160,490,5040,490C4920,490,4800,490,4680,490C4560,490,4440,490,4320,490C4200,490,4080,490,3960,490C3840,490,3720,490,3600,490C3480,490,3360,490,3240,490C3120,490,3000,490,2880,490C2760,490,2640,490,2520,490C2400,490,2280,490,2160,490C2040,490,1920,490,1800,490C1680,490,1560,490,1440,490C1320,490,1200,490,1080,490C960,490,840,490,720,490C600,490,480,490,360,490C240,490,120,490,60,490L0,490Z"/></svg>